<mxfile host="app.diagrams.net" modified="2024-07-18T08:33:52.711Z" agent="Mozilla/5.0 (Windows NT 10.0; Win64; x64) AppleWebKit/537.36 (KHTML, like Gecko) Chrome/126.0.0.0 Safari/537.36 Edg/126.0.0.0" version="24.7.1" etag="Q-UyEHC_yKPQ8AWKqy9L" type="github">
  <diagram name="Page-1" id="BrlDKDauqT5crSn-wGAR">
    <mxGraphModel>
      <root>
        <mxCell id="0" />
        <mxCell id="1" parent="0" />
      </root>
    </mxGraphModel>
  </diagram>
</mxfile>
